<mxfile host="app.diagrams.net" modified="2022-04-12T02:11:55.935Z" agent="5.0 (Macintosh; Intel Mac OS X 10_15_7) AppleWebKit/537.36 (KHTML, like Gecko) Chrome/100.0.4896.75 Safari/537.36" etag="P27LrtF3ZdsVjhVWn_NE" version="17.4.3" type="github">
  <diagram id="8_DWzM_fp91CAAIlSjK8" name="Page-1">
    <mxGraphModel dx="2179" dy="479" grid="1" gridSize="10" guides="1" tooltips="1" connect="1" arrows="1" fold="1" page="1" pageScale="1" pageWidth="850" pageHeight="1100" math="0" shadow="0">
      <root>
        <mxCell id="0" />
        <mxCell id="1" parent="0" />
        <mxCell id="JbaKOitjpTuBiVBRiGnQ-29" value="" style="shape=folder;fontStyle=1;spacingTop=10;tabWidth=240;tabHeight=20;tabPosition=left;html=1;" parent="1" vertex="1">
          <mxGeometry x="-570" y="500" width="1360" height="1120" as="geometry" />
        </mxCell>
        <mxCell id="JbaKOitjpTuBiVBRiGnQ-31" value="" style="shape=folder;fontStyle=1;spacingTop=10;tabWidth=240;tabHeight=20;tabPosition=left;html=1;" parent="1" vertex="1">
          <mxGeometry x="-1190" y="506" width="530" height="460" as="geometry" />
        </mxCell>
        <mxCell id="JbaKOitjpTuBiVBRiGnQ-33" value="" style="shape=folder;fontStyle=1;spacingTop=10;tabWidth=240;tabHeight=20;tabPosition=left;html=1;" parent="1" vertex="1">
          <mxGeometry x="-540" y="1680" width="530" height="460" as="geometry" />
        </mxCell>
        <mxCell id="JbaKOitjpTuBiVBRiGnQ-35" value="" style="shape=folder;fontStyle=1;spacingTop=10;tabWidth=240;tabHeight=20;tabPosition=left;html=1;container=1;" parent="1" vertex="1">
          <mxGeometry x="-1150" y="1010" width="530" height="460" as="geometry">
            <mxRectangle x="-1150" y="1010" width="50" height="40" as="alternateBounds" />
          </mxGeometry>
        </mxCell>
        <mxCell id="JbaKOitjpTuBiVBRiGnQ-36" value="org.lsmr.selfcheckout.devices" style="text;html=1;align=center;verticalAlign=middle;resizable=0;points=[];autosize=1;strokeColor=none;fillColor=none;" parent="JbaKOitjpTuBiVBRiGnQ-35" vertex="1">
          <mxGeometry x="20" width="170" height="20" as="geometry" />
        </mxCell>
        <mxCell id="JbaKOitjpTuBiVBRiGnQ-22" value="CoinDispenser" style="html=1;" parent="JbaKOitjpTuBiVBRiGnQ-35" vertex="1">
          <mxGeometry x="210" y="40" width="150" height="50" as="geometry" />
        </mxCell>
        <mxCell id="JbaKOitjpTuBiVBRiGnQ-24" value="BanknoteSlot" style="html=1;" parent="JbaKOitjpTuBiVBRiGnQ-35" vertex="1">
          <mxGeometry x="330" y="150" width="150" height="50" as="geometry" />
        </mxCell>
        <mxCell id="JbaKOitjpTuBiVBRiGnQ-27" value="BanknoteDispenser" style="html=1;" parent="JbaKOitjpTuBiVBRiGnQ-35" vertex="1">
          <mxGeometry x="50" y="280" width="150" height="50" as="geometry" />
        </mxCell>
        <mxCell id="JbaKOitjpTuBiVBRiGnQ-2" value="AttendantLogic" style="swimlane;fontStyle=1;align=center;verticalAlign=top;childLayout=stackLayout;horizontal=1;startSize=26;horizontalStack=0;resizeParent=1;resizeParentMax=0;resizeLast=0;collapsible=1;marginBottom=0;" parent="1" vertex="1">
          <mxGeometry x="-290" y="570" width="220" height="410" as="geometry" />
        </mxCell>
        <mxCell id="JbaKOitjpTuBiVBRiGnQ-3" value="- currency: Currency&#xa;- coin1: BigDecimal&#xa;- coin2: BigDecimal&#xa;- coin3: BigDecimal&#xa;- coin4: BigDecimal&#xa;- coin5: BigDecimal&#xa;- dime: Coin&#xa;- loonie: Coin&#xa;- nickle: Coin&#xa;- quarter: Coin&#xa;- twoonie: Coin&#xa;- note1: Banknote&#xa;- note2: Banknote&#xa;- note3: Banknote&#xa;- note4: Banknote&#xa;- note5: Banknote&#xa;- note6: Banknote&#xa;- bankNoteDenominations: int[]&#xa;- banknoteArray: Banknote[]&#xa;- coinDenominations: Bigdecimal[]&#xa;- coinArray: Coin[]&#xa;" style="text;strokeColor=none;fillColor=none;align=left;verticalAlign=top;spacingLeft=4;spacingRight=4;overflow=hidden;rotatable=0;points=[[0,0.5],[1,0.5]];portConstraint=eastwest;" parent="JbaKOitjpTuBiVBRiGnQ-2" vertex="1">
          <mxGeometry y="26" width="220" height="304" as="geometry" />
        </mxCell>
        <mxCell id="JbaKOitjpTuBiVBRiGnQ-4" value="" style="line;strokeWidth=1;fillColor=none;align=left;verticalAlign=middle;spacingTop=-1;spacingLeft=3;spacingRight=3;rotatable=0;labelPosition=right;points=[];portConstraint=eastwest;" parent="JbaKOitjpTuBiVBRiGnQ-2" vertex="1">
          <mxGeometry y="330" width="220" height="50" as="geometry" />
        </mxCell>
        <mxCell id="Gyplj0bTZnEPewytaOJa-4" value="AttendantLogic(SupervisionStation)" style="text;html=1;strokeColor=none;fillColor=none;align=center;verticalAlign=middle;whiteSpace=wrap;rounded=0;" vertex="1" parent="JbaKOitjpTuBiVBRiGnQ-2">
          <mxGeometry y="380" width="220" height="30" as="geometry" />
        </mxCell>
        <mxCell id="JbaKOitjpTuBiVBRiGnQ-6" value="SelfCheckoutSystemLogic" style="swimlane;fontStyle=1;align=center;verticalAlign=top;childLayout=stackLayout;horizontal=1;startSize=26;horizontalStack=0;resizeParent=1;resizeParentMax=0;resizeLast=0;collapsible=1;marginBottom=0;" parent="1" vertex="1">
          <mxGeometry x="-10" y="761" width="260" height="110" as="geometry" />
        </mxCell>
        <mxCell id="JbaKOitjpTuBiVBRiGnQ-7" value="- isCheckingOut: boolean&#xa;" style="text;strokeColor=none;fillColor=none;align=left;verticalAlign=top;spacingLeft=4;spacingRight=4;overflow=hidden;rotatable=0;points=[[0,0.5],[1,0.5]];portConstraint=eastwest;" parent="JbaKOitjpTuBiVBRiGnQ-6" vertex="1">
          <mxGeometry y="26" width="260" height="24" as="geometry" />
        </mxCell>
        <mxCell id="JbaKOitjpTuBiVBRiGnQ-8" value="" style="line;strokeWidth=1;fillColor=none;align=left;verticalAlign=middle;spacingTop=-1;spacingLeft=3;spacingRight=3;rotatable=0;labelPosition=right;points=[];portConstraint=eastwest;" parent="JbaKOitjpTuBiVBRiGnQ-6" vertex="1">
          <mxGeometry y="50" width="260" height="8" as="geometry" />
        </mxCell>
        <mxCell id="JbaKOitjpTuBiVBRiGnQ-9" value="+ finishCheckout(): void&#xa;+ wantsToCheckout(): void&#xa;+ addItemAfterCheckoutStart(): void&#xa;" style="text;strokeColor=none;fillColor=none;align=left;verticalAlign=top;spacingLeft=4;spacingRight=4;overflow=hidden;rotatable=0;points=[[0,0.5],[1,0.5]];portConstraint=eastwest;" parent="JbaKOitjpTuBiVBRiGnQ-6" vertex="1">
          <mxGeometry y="58" width="260" height="52" as="geometry" />
        </mxCell>
        <mxCell id="JbaKOitjpTuBiVBRiGnQ-14" value="TouchScreenObserver" style="html=1;" parent="1" vertex="1">
          <mxGeometry x="-530" y="1720" width="150" height="50" as="geometry" />
        </mxCell>
        <mxCell id="JbaKOitjpTuBiVBRiGnQ-16" value="PayWithCoin" style="html=1;" parent="1" vertex="1">
          <mxGeometry x="-540" y="1230" width="150" height="50" as="geometry" />
        </mxCell>
        <mxCell id="JbaKOitjpTuBiVBRiGnQ-17" value="PayWithBanknote" style="html=1;" parent="1" vertex="1">
          <mxGeometry x="-330" y="1230" width="150" height="50" as="geometry" />
        </mxCell>
        <mxCell id="JbaKOitjpTuBiVBRiGnQ-18" value="ReturnChange" style="html=1;" parent="1" vertex="1">
          <mxGeometry x="-100" y="1230" width="150" height="50" as="geometry" />
        </mxCell>
        <mxCell id="JbaKOitjpTuBiVBRiGnQ-19" value="CardHandler" style="html=1;" parent="1" vertex="1">
          <mxGeometry x="100" y="1230" width="150" height="50" as="geometry" />
        </mxCell>
        <mxCell id="JbaKOitjpTuBiVBRiGnQ-20" value="PayWithGiftCard" style="html=1;" parent="1" vertex="1">
          <mxGeometry x="310" y="1230" width="150" height="50" as="geometry" />
        </mxCell>
        <mxCell id="JbaKOitjpTuBiVBRiGnQ-21" value="ReceiptPrinter" style="html=1;" parent="1" vertex="1">
          <mxGeometry x="540" y="1230" width="150" height="50" as="geometry" />
        </mxCell>
        <mxCell id="JbaKOitjpTuBiVBRiGnQ-23" value="BanknoteValidatorObserver" style="html=1;" parent="1" vertex="1">
          <mxGeometry x="-880" y="711" width="150" height="50" as="geometry" />
        </mxCell>
        <mxCell id="JbaKOitjpTuBiVBRiGnQ-25" value="CardReaderObserver" style="html=1;" parent="1" vertex="1">
          <mxGeometry x="-840" y="610" width="150" height="50" as="geometry" />
        </mxCell>
        <mxCell id="JbaKOitjpTuBiVBRiGnQ-26" value="ReceiptPrinterObserver" style="html=1;" parent="1" vertex="1">
          <mxGeometry x="-1100" y="866" width="150" height="50" as="geometry" />
        </mxCell>
        <mxCell id="JbaKOitjpTuBiVBRiGnQ-28" value="CoinDispenserObserver" style="html=1;" parent="1" vertex="1">
          <mxGeometry x="-870" y="830" width="150" height="50" as="geometry" />
        </mxCell>
        <mxCell id="JbaKOitjpTuBiVBRiGnQ-30" value="seng300.software" style="text;html=1;align=center;verticalAlign=middle;resizable=0;points=[];autosize=1;strokeColor=none;fillColor=none;" parent="1" vertex="1">
          <mxGeometry x="-570" y="500" width="110" height="20" as="geometry" />
        </mxCell>
        <mxCell id="JbaKOitjpTuBiVBRiGnQ-32" value="seng300.software.observers" style="text;html=1;align=center;verticalAlign=middle;resizable=0;points=[];autosize=1;strokeColor=none;fillColor=none;" parent="1" vertex="1">
          <mxGeometry x="-1190" y="506" width="170" height="20" as="geometry" />
        </mxCell>
        <mxCell id="JbaKOitjpTuBiVBRiGnQ-34" value="org.lsrm.selfcheckout.devices.observers" style="text;html=1;align=center;verticalAlign=middle;resizable=0;points=[];autosize=1;strokeColor=none;fillColor=none;" parent="1" vertex="1">
          <mxGeometry x="-540" y="1680" width="230" height="20" as="geometry" />
        </mxCell>
        <mxCell id="JbaKOitjpTuBiVBRiGnQ-37" value="Checkout" style="swimlane;fontStyle=1;align=center;verticalAlign=top;childLayout=stackLayout;horizontal=1;startSize=26;horizontalStack=0;resizeParent=1;resizeParentMax=0;resizeLast=0;collapsible=1;marginBottom=0;" parent="1" vertex="1">
          <mxGeometry x="350" y="660" width="370" height="300" as="geometry" />
        </mxCell>
        <mxCell id="JbaKOitjpTuBiVBRiGnQ-38" value="- totalCost: BigDecimal&#xa;- totalchange: BigDecimal&#xa;- totalAmountPaid: BigDecimal&#xa;- membershipNumber: String&#xa;- payments: ArrayList&lt;String&gt;" style="text;strokeColor=none;fillColor=none;align=left;verticalAlign=top;spacingLeft=4;spacingRight=4;overflow=hidden;rotatable=0;points=[[0,0.5],[1,0.5]];portConstraint=eastwest;" parent="JbaKOitjpTuBiVBRiGnQ-37" vertex="1">
          <mxGeometry y="26" width="370" height="84" as="geometry" />
        </mxCell>
        <mxCell id="JbaKOitjpTuBiVBRiGnQ-39" value="" style="line;strokeWidth=1;fillColor=none;align=left;verticalAlign=middle;spacingTop=-1;spacingLeft=3;spacingRight=3;rotatable=0;labelPosition=right;points=[];portConstraint=eastwest;" parent="JbaKOitjpTuBiVBRiGnQ-37" vertex="1">
          <mxGeometry y="110" width="370" height="8" as="geometry" />
        </mxCell>
        <mxCell id="JbaKOitjpTuBiVBRiGnQ-40" value="+ Checkout(SelfCheckoutStation, ArrayList&lt;Product&gt;, BigDecimal)&#xa;+ chooseMembership(MembersProgramStub): void&#xa;+ chooseCredit(BankStub, BigDecimal): void&#xa;+ chooseDebit(Bankstub, BigDecimal): void&#xa;+ chooseCoin(): void&#xa;+ chooseBanknote(): void&#xa;+ completeMembershipRecognition(): void&#xa;+ resetMembershipNumber(): void&#xa;+ completeCurrentPaymentMethod(): void&#xa;+ finishPayment(): void&#xa;+ returnBanknoteChange(): void&#xa;+ returnCoinChange(): void&#xa;&#xa;" style="text;strokeColor=none;fillColor=none;align=left;verticalAlign=top;spacingLeft=4;spacingRight=4;overflow=hidden;rotatable=0;points=[[0,0.5],[1,0.5]];portConstraint=eastwest;" parent="JbaKOitjpTuBiVBRiGnQ-37" vertex="1">
          <mxGeometry y="118" width="370" height="182" as="geometry" />
        </mxCell>
        <mxCell id="JbaKOitjpTuBiVBRiGnQ-15" value="PrinterObserver" style="html=1;" parent="1" vertex="1">
          <mxGeometry x="-1110" y="580" width="150" height="50" as="geometry" />
        </mxCell>
        <mxCell id="Gyplj0bTZnEPewytaOJa-6" value="" style="edgeStyle=orthogonalEdgeStyle;rounded=0;orthogonalLoop=1;jettySize=auto;html=1;endArrow=openThin;endFill=0;" edge="1" parent="1" target="JbaKOitjpTuBiVBRiGnQ-40">
          <mxGeometry relative="1" as="geometry">
            <mxPoint x="250" y="820" as="sourcePoint" />
            <Array as="points">
              <mxPoint x="250" y="820" />
            </Array>
          </mxGeometry>
        </mxCell>
        <mxCell id="Gyplj0bTZnEPewytaOJa-7" value="&lt;font style=&quot;font-size: 6px&quot;&gt;+ checkout 0..1&lt;/font&gt;" style="text;html=1;align=center;verticalAlign=middle;resizable=0;points=[];autosize=1;strokeColor=none;fillColor=none;" vertex="1" parent="1">
          <mxGeometry x="290" y="800" width="60" height="20" as="geometry" />
        </mxCell>
        <mxCell id="Gyplj0bTZnEPewytaOJa-8" value="" style="edgeStyle=orthogonalEdgeStyle;rounded=0;orthogonalLoop=1;jettySize=auto;html=1;endArrow=openThin;endFill=0;exitX=0.998;exitY=0.68;exitDx=0;exitDy=0;exitPerimeter=0;" edge="1" parent="1" source="JbaKOitjpTuBiVBRiGnQ-3">
          <mxGeometry relative="1" as="geometry">
            <mxPoint x="-110" y="809.63" as="sourcePoint" />
            <mxPoint x="-10" y="809.63" as="targetPoint" />
            <Array as="points">
              <mxPoint x="-70" y="805" />
              <mxPoint x="-70" y="810" />
            </Array>
          </mxGeometry>
        </mxCell>
      </root>
    </mxGraphModel>
  </diagram>
</mxfile>
